<svg width="50.000000" height="50.000000" viewBox="0 0 50 50" fill="none" xmlns="http://www.w3.org/2000/svg" xmlns:xlink="http://www.w3.org/1999/xlink">
	<desc>
			Created with Pixso.
	</desc>
	<defs>
		<clipPath id="clip33_304">
			<rect id="arcticons:youtube-studio" width="50.000000" height="50.000000" fill="white" fill-opacity="0"/>
		</clipPath>
	</defs>
	<rect id="arcticons:youtube-studio" width="50.000000" height="50.000000" fill="#FFFFFF" fill-opacity="0"/>
	<g clip-path="url(#clip33_304)">
		<path id="Vector" d="M43.4536 35.6421L24.98 46.3076L6.50732 35.6421L6.50732 14.3115L24.98 3.646L43.4536 14.3115L43.4536 35.6421Z" fill="#FFFFFF" fill-opacity="1.000000" fill-rule="nonzero"/>
		<path id="Vector" d="M24.98 46.3076L6.50732 35.6421L6.50732 14.3115L24.98 3.646L43.4536 14.3115L43.4536 35.6421L24.98 46.3076Z" stroke="#9F6B08" stroke-opacity="1.000000" stroke-width="1.000000" stroke-linejoin="round"/>
		<path id="Vector" d="M36.7271 31.771L25 38.542L13.2729 31.771L13.2729 18.2295L25 11.4585L36.7271 18.2295L36.7271 31.771Z" fill="#FFFFFF" fill-opacity="1.000000" fill-rule="nonzero"/>
		<path id="Vector" d="M25 38.542L13.2729 31.771L13.2729 18.2295L25 11.4585L36.7271 18.2295L36.7271 31.771L25 38.542Z" stroke="#9F6B08" stroke-opacity="1.000000" stroke-width="1.000000" stroke-linejoin="round"/>
		<path id="Vector" d="M21.6289 30.2393L30.4707 25.0176L21.6123 19.7603L21.6289 30.2393Z" fill="#9F6B08" fill-opacity="1.000000" fill-rule="nonzero"/>
		<path id="Vector" d="M30.4707 25.0176L21.6123 19.7603L21.6289 30.2393L30.4707 25.0176Z" stroke="#FFFFFF" stroke-opacity="1.000000" stroke-width="1.000000" stroke-linejoin="round"/>
	</g>
</svg>
