<svg width="30.000000" height="30.000000" viewBox="0 0 30 30" fill="none" xmlns="http://www.w3.org/2000/svg" xmlns:xlink="http://www.w3.org/1999/xlink">
	<desc>
			Created with Pixso.
	</desc>
	<defs/>
	<path id="Polygon 3" d="M15 0L2.00977 7.5L2.00977 22.5L15 30L27.9902 22.5L27.9902 7.5L15 0Z" fill="#D9D9D9" fill-opacity="0" fill-rule="evenodd"/>
	<path id="Polygon 3" d="M2.00977 7.5L2.00977 22.5L15 30L27.9902 22.5L27.9902 7.5L15 0L2.00977 7.5ZM3.00977 8.07733L3.00977 21.9227L15 28.8453L26.9902 21.9227L26.9902 8.07733L15 1.15472L3.00977 8.07733Z" fill="#040404" fill-opacity="1.000000" fill-rule="evenodd"/>
	<path id="Arrow 3" d="M15.5 10L15.5 20L14.5 20L14.5 10L15.5 10ZM15 19.2929L17.4751 16.818C17.6729 16.6201 17.9839 16.6201 18.1821 16.818C18.3799 17.016 18.3799 17.3271 18.1821 17.5251L15.3535 20.3536C15.1558 20.5515 14.8442 20.5515 14.6465 20.3536L11.8179 17.5251C11.6201 17.3271 11.6201 17.016 11.8179 16.818C12.0161 16.6201 12.3271 16.6201 12.5249 16.818L15 19.2929Z" fill="#040404" fill-opacity="1.000000" fill-rule="evenodd"/>
</svg>
